<svg width="20" height="20" viewBox="0 0 20 20" fill="none" xmlns="http://www.w3.org/2000/svg">
    <g clip-path="url(#clip0_82_5928)">
        <path
            d="M7.5 0.347812C7.62202 0.496078 7.69677 0.677527 7.71459 0.868715C7.73242 1.0599 7.6925 1.25204 7.6 1.42031C6.87732 2.74716 6.49992 4.23443 6.5025 5.74531C6.5025 10.7716 10.6 14.8416 15.65 14.8416C16.3088 14.8416 16.95 14.7728 17.5663 14.6416C17.7552 14.6007 17.9519 14.6163 18.132 14.6866C18.3121 14.7568 18.4675 14.8785 18.5788 15.0366C18.6962 15.2009 18.7561 15.3994 18.7491 15.6013C18.7421 15.8031 18.6686 15.997 18.54 16.1528C17.5596 17.3571 16.3228 18.3274 14.9198 18.993C13.5168 19.6587 11.9829 20.0028 10.43 20.0003C4.6675 20.0003 0 15.3578 0 9.63781C0 5.33281 2.6425 1.64031 6.405 0.0753121C6.59242 -0.00389809 6.80049 -0.0201556 6.99794 0.0289817C7.19539 0.078119 7.37156 0.189998 7.5 0.347812Z"
            fill="white" />
        <path
            d="M13.4925 3.93502C13.5104 3.88089 13.545 3.83378 13.5912 3.80039C13.6374 3.76701 13.693 3.74904 13.75 3.74904C13.807 3.74904 13.8626 3.76701 13.9088 3.80039C13.9551 3.83378 13.9896 3.88089 14.0075 3.93502L14.4913 5.38752C14.7075 6.03502 15.215 6.54252 15.8625 6.75877L17.315 7.24252C17.3691 7.26044 17.4162 7.29497 17.4496 7.3412C17.483 7.38742 17.501 7.443 17.501 7.50002C17.501 7.55704 17.483 7.61261 17.4496 7.65884C17.4162 7.70507 17.3691 7.73959 17.315 7.75752L15.8625 8.24127C15.5432 8.34767 15.253 8.52697 15.015 8.76499C14.777 9.003 14.5977 9.29318 14.4913 9.61252L14.0075 11.065C13.9896 11.1192 13.9551 11.1663 13.9088 11.1996C13.8626 11.233 13.807 11.251 13.75 11.251C13.693 11.251 13.6374 11.233 13.5912 11.1996C13.545 11.1663 13.5104 11.1192 13.4925 11.065L13.0088 9.61252C12.9024 9.29318 12.7231 9.003 12.485 8.76499C12.247 8.52697 11.9569 8.34767 11.6375 8.24127L10.185 7.75752C10.1309 7.73959 10.0838 7.70507 10.0504 7.65884C10.017 7.61261 9.99902 7.55704 9.99902 7.50002C9.99902 7.443 10.017 7.38742 10.0504 7.3412C10.0838 7.29497 10.1309 7.26044 10.185 7.24252L11.6375 6.75877C11.9569 6.65237 12.247 6.47306 12.485 6.23505C12.7231 5.99704 12.9024 5.70686 13.0088 5.38752L13.4925 3.93502ZM17.3288 0.12377C17.3411 0.0881783 17.3642 0.0573153 17.3949 0.0354724C17.4256 0.0136295 17.4623 0.00189209 17.5 0.00189209C17.5377 0.00189209 17.5744 0.0136295 17.6051 0.0354724C17.6358 0.0573153 17.6589 0.0881783 17.6713 0.12377L17.9938 1.09127C18.1375 1.52377 18.4763 1.86252 18.9088 2.00627L19.8763 2.32877C19.9118 2.34111 19.9427 2.36423 19.9646 2.39492C19.9864 2.42562 19.9981 2.46235 19.9981 2.50002C19.9981 2.53769 19.9864 2.57443 19.9646 2.60512C19.9427 2.63581 19.9118 2.65893 19.8763 2.67127L18.9088 2.99377C18.6956 3.06467 18.5019 3.18429 18.3431 3.34312C18.1843 3.50196 18.0647 3.69563 17.9938 3.90877L17.6713 4.87627C17.6589 4.91186 17.6358 4.94273 17.6051 4.96457C17.5744 4.98641 17.5377 4.99815 17.5 4.99815C17.4623 4.99815 17.4256 4.98641 17.3949 4.96457C17.3642 4.94273 17.3411 4.91186 17.3288 4.87627L17.0063 3.90877C16.9354 3.69563 16.8157 3.50196 16.6569 3.34312C16.4981 3.18429 16.3044 3.06467 16.0913 2.99377L15.1238 2.67127C15.0882 2.65893 15.0573 2.63581 15.0355 2.60512C15.0136 2.57443 15.0019 2.53769 15.0019 2.50002C15.0019 2.46235 15.0136 2.42562 15.0355 2.39492C15.0573 2.36423 15.0882 2.34111 15.1238 2.32877L16.0913 2.00627C16.5238 1.86252 16.8625 1.52377 17.0063 1.09127L17.3288 0.12502V0.12377Z"
            fill="white" />
    </g>
    <defs>
        <clipPath id="clip0_82_5928">
            <rect width="20" height="20" fill="white" />
        </clipPath>
    </defs>
</svg>