<svg width="20" height="22" viewBox="0 0 20 22" fill="none" xmlns="http://www.w3.org/2000/svg">
<path d="M1.99999 13C1.81076 13.0006 1.62522 12.9476 1.46495 12.847C1.30467 12.7464 1.17623 12.6024 1.09454 12.4317C1.01286 12.261 0.981285 12.0706 1.00349 11.8827C1.0257 11.6947 1.10077 11.517 1.21999 11.37L11.12 1.17C11.1943 1.08428 11.2955 1.02636 11.407 1.00573C11.5185 0.985108 11.6337 1.00301 11.7337 1.0565C11.8337 1.10999 11.9126 1.1959 11.9573 1.30011C12.0021 1.40432 12.0101 1.52065 11.98 1.63L10.06 7.65C10.0034 7.80152 9.98436 7.96452 10.0046 8.12501C10.0248 8.28549 10.0837 8.43868 10.1761 8.57143C10.2685 8.70417 10.3918 8.81251 10.5353 8.88716C10.6788 8.9618 10.8382 9.00053 11 9H18C18.1892 8.99935 18.3748 9.05242 18.535 9.15302C18.6953 9.25363 18.8238 9.39764 18.9054 9.56834C18.9871 9.73904 19.0187 9.92941 18.9965 10.1173C18.9743 10.3053 18.8992 10.483 18.78 10.63L8.87999 20.83C8.80573 20.9157 8.70453 20.9736 8.59301 20.9943C8.48149 21.0149 8.36627 20.997 8.26626 20.9435C8.16626 20.89 8.08741 20.8041 8.04266 20.6999C7.99791 20.5957 7.98991 20.4794 8.01999 20.37L9.93999 14.35C9.99661 14.1985 10.0156 14.0355 9.9954 13.875C9.97518 13.7145 9.91633 13.5613 9.8239 13.4286C9.73147 13.2958 9.60822 13.1875 9.46472 13.1128C9.32121 13.0382 9.16175 12.9995 8.99999 13H1.99999Z" stroke="white" stroke-width="2" stroke-linecap="round" stroke-linejoin="round"/>
</svg>
