<svg width="101" height="67" viewBox="0 0 101 67" fill="none" xmlns="http://www.w3.org/2000/svg">
<path d="M74.4526 1C66.9687 1 60.164 5.33526 56.9972 12.1185C52.1879 22.422 47.3766 32.7275 42.5673 43.0324C39.7622 44.3595 36.9561 45.6876 34.151 47.0147C35.9025 43.3236 37.6545 39.6329 39.4055 35.9438C36.5949 29.9991 33.7844 24.055 30.9739 18.1103C28.9835 13.9002 24.7459 11.2156 20.0897 11.2156C13.393 11.2156 6.69672 11.2156 0 11.2156C9.50134 11.2156 18.1149 16.8053 21.9884 25.4852C27.4847 37.8011 32.9796 50.1171 38.4765 62.4331C39.6312 65.0195 41.1427 66 43.9743 66C45.2502 66 46.5257 66 47.8031 66C54.6127 51.3112 61.4228 36.6228 68.2324 21.933C74.1493 9.16778 86.9362 1.00049 101 1.00049C92.1504 1 83.3012 1 74.4526 1Z" fill="white" stroke="white"/>
</svg>
